Coordinates
version=1
nRows=11
nColumns=36
inDegrees=yes

Units are S.I. units (second, meters, Newtons, ...)
If the header above contains a line with 'inDegrees', this indicates whether rotational values are in degrees (yes) or radians (no).

endheader
time	pelvis_tilt	pelvis_list	pelvis_rotation	pelvis_tx	pelvis_ty	pelvis_tz	hip_flexion_r	hip_adduction_r	hip_rotation_r	knee_angle_r	knee_angle_r_beta	ankle_angle_r	subtalar_angle_r	mtp_angle_r	hip_flexion_l	hip_adduction_l	hip_rotation_l	knee_angle_l	knee_angle_l_beta	ankle_angle_l	subtalar_angle_l	mtp_angle_l	lumbar_extension	lumbar_bending	lumbar_rotation	arm_flex_r	arm_add_r	arm_rot_r	elbow_flex_r	pro_sup_r	arm_flex_l	arm_add_l	arm_rot_l	elbow_flex_l	pro_sup_l
      6.10000000	    -14.88216925	      2.02760942	      4.74277501	      1.24066674	      0.90353236	      0.07496972	     34.04102822	     -8.82431584	     -4.98535373	     24.25574470	      0.42334261	     11.17827932	     -9.48792310	     -7.49999987	     34.29870798	     -5.87515309	     -4.00906611	     19.78083089	      0.34524063	      7.41686741	     -1.46231841	     -7.49999987	     -4.55411742	     -1.90340961	     12.86271969	    343.48977648	    -38.02912437	    309.58080365	     44.65497111	    105.92702772	    206.00775620	   -140.48862791	    153.46553340	     19.05966210	     94.80189176
      6.11666670	    -13.63719525	      1.85917606	      4.81906784	      1.24415708	      0.90847929	      0.07392374	     31.65248474	     -8.49390353	     -5.11975471	     23.21637918	      0.40520226	     10.98004033	     -9.70376013	     -7.49999987	     32.04009089	     -5.91680156	     -3.77884005	     18.56595884	      0.32403711	      7.08224739	     -1.75080839	     -7.49999987	     -4.56811000	     -1.02978284	     10.72397263	    343.30669451	    -36.60563514	    308.50008747	     45.33259605	    106.08983004	    194.48705942	   -137.86745256	    143.23156911	     22.75885903	     92.28895928
      6.13333330	    -12.31114532	      1.66430321	      4.93539013	      1.25465826	      0.90997309	      0.07115813	     29.09437372	     -8.25164169	     -5.43438302	     22.27471913	      0.38876719	     10.60774247	    -10.24597140	     -7.49999987	     29.71312746	     -6.01728938	     -3.42887887	     17.60415248	      0.30725042	      7.18057753	     -1.56292626	     -7.49999987	     -4.51007448	     -0.37456726	      8.38924390	    341.69877653	    -34.89271967	    307.48098699	     46.07008754	    104.52236333	    183.11978955	   -136.29009990	    135.52756229	     25.67721151	     88.32770138
      6.15000000	    -11.00722804	      1.54436695	      4.88168391	      1.25937495	      0.91216864	      0.07177388	     26.59121471	     -7.88923360	     -5.44170776	     21.20942925	      0.37017437	     10.31017941	    -10.68089902	     -7.49999987	     27.45339479	     -6.16621746	     -3.33622561	     16.74733353	      0.29229611	      7.34083247	     -1.56933511	     -7.49999987	     -4.53440141	      0.02160833	      8.52972799	    335.78060318	    -31.51769662	    303.42516109	     47.15399468	    101.49791157	    176.25133528	   -135.24611936	    132.41878615	     26.51870424	     86.10348341
      6.16666670	     -9.96247710	      1.33943731	      4.99993058	      1.26057703	      0.92146335	      0.07108804	     24.34627590	     -7.51139187	     -5.59339699	     19.78983298	      0.34539774	      9.77085893	    -10.91853475	     -7.49999987	     25.55807598	     -6.26977087	     -2.94916635	     15.80922730	      0.27592307	      6.94095229	     -1.98345355	     -7.49999987	     -4.41709951	      0.18471990	      4.72184567	    335.87509418	    -29.88332590	    304.10180300	     45.78748050	    101.91202277	    163.23038195	   -136.58078749	    122.16107397	     29.37730860	     79.67163793
      6.18333330	     -8.93360524	      1.22345764	      5.12265250	      1.26788104	      0.92196818	      0.07050897	     22.17636062	     -7.20258169	     -5.62691401	     18.44305715	      0.32189207	      9.44069699	    -11.06063291	     -7.49999987	     23.69132006	     -6.32700266	     -2.48501304	     15.04416081	      0.26257014	      6.96574131	     -2.24147716	     -7.49999987	     -4.28177246	      0.26499854	      3.68547795	    332.71252459	    -26.99544841	    302.00634068	     45.32307724	     99.72038154	    155.95749250	   -137.68483029	    117.36062008	     30.06221192	     76.04453610
      6.20000000	     -8.08908190	      1.02730590	      4.93280709	      1.27148570	      0.91996526	      0.06937966	     20.59708214	     -6.73280729	     -5.50510620	     17.43292809	      0.30426199	      8.90249319	    -11.99389468	     -7.49999987	     21.95536401	     -6.57740075	     -2.43432646	     14.08968937	      0.24591147	      7.08345826	     -2.26751229	     -7.49999987	     -4.24447280	      0.60251418	      4.17743161	    328.84704955	    -23.68457772	    298.95259441	     45.82781489	     95.68299133	    150.96580507	   -138.88078194	    115.11753441	     30.83242505	     73.64958676
      6.21666670	     -7.75238333	      0.84037725	      4.76235402	      1.27559884	      0.91880055	      0.06650688	     19.66739641	     -6.46050430	     -5.45247838	     16.71400891	      0.29171449	      8.58039146	    -12.56924922	     -7.49999987	     20.96842560	     -6.69403986	     -2.12631676	     13.44186078	      0.23460473	      7.17027261	     -2.97508225	     -7.49999987	     -3.49087198	      0.43167049	      1.72998170	    328.05480587	    -22.83659776	    299.76956537	     43.53172944	     94.40117280	    142.06890627	   -142.64526257	    109.91752154	     33.23443597	     67.60580081
      6.23333330	     -7.27737639	      0.68158864	      4.72076856	      1.28170888	      0.92772605	      0.06532962	     18.08815916	     -6.18587836	     -5.51927844	     15.31850912	      0.26735842	      8.28144718	    -12.43869219	     -7.49999987	     19.60338602	     -6.74389891	     -1.84894056	     12.41307357	      0.21664900	      6.97298629	     -3.22558988	     -7.49999987	     -2.83246900	      0.62268321	      1.52645353	    325.40802173	    -20.00826228	    297.39612706	     42.71979386	     93.42578529	    138.56394076	   -144.69174266	    108.90745359	     33.68676511	     66.27386264
      6.25000000	     -6.79436117	      0.56890923	      4.53024706	      1.28476658	      0.93340387	      0.06420148	     16.56014768	     -5.96220978	     -5.76711992	     13.87139745	      0.24210156	      7.90839111	    -11.85835959	     -7.49999987	     18.22670340	     -6.82636230	     -1.91050348	     11.37928568	      0.19860600	      7.08398786	     -2.99334664	     -7.49999987	     -2.19332046	      0.86440008	      1.38164868	    323.17363237	    -17.44147121	    295.77899878	     41.29089442	     88.86600746	    135.82429581	   -147.08731886	    107.72575832	     33.49979317	     64.03754420
      6.26666670	     -6.48077406	      0.53610121	      4.26632115	      1.29137366	      0.92950399	      0.06282644	     15.25880068	     -5.83121877	     -5.79603552	     12.68250958	      0.22135155	      7.70192572	    -11.66225875	     -7.49999987	     17.05128734	     -6.81014185	     -1.83326487	     10.58063031	      0.18466684	      7.50969677	     -3.06942371	     -7.49999987	     -1.08477359	      0.96489437	      1.53127322	    320.41919965	    -14.81353651	    295.14197229	     40.43345670	     88.64280755	    133.16085523	   -149.48130423	    107.12489116	     32.43639097	     63.77521106
